# xmcd CD database file
#
# Track frame offsets:
#	150
#	27930
#	56145
#	81413
#	100900
#	115472
#	152321
#	164483
#	195909
#	211017
#	232775
#	259186
#
# Disc length: 3883 seconds
#
# Revision: 1
# Processed by: cddbd v1.5.1PL2 Copyright (c) Steve Scherf et al.
# Submitted via: CDex 1.51
#
DISCID=930f290c
DTITLE=Colin Aitchison and The China Coast Jazzmen - The World Is Waiting For The Sunrise
DYEAR=1900
DGENRE=Jazz
TTITLE0=L.O.V.E
TTITLE1=Sweet Georgia Brown
TTITLE2=I Can't Get Started
TTITLE3=Struttin' With Some Barbeque
TTITLE4=Good Luck
TTITLE5=Bei Mir Bist Du Schoen
TTITLE6=That's My Home
TTITLE7=Oh Marie!
TTITLE8=St. Louis Blues March
TTITLE9=When You're Drinkin'/Smilin'
TTITLE10=The Work Is Waiting For The Sunrise
TTITLE11=The Battle Hymn Of The Republic
EXTD=
EXTT0=
EXTT1=
EXTT2=
EXTT3=
EXTT4=
EXTT5=
EXTT6=
EXTT7=
EXTT8=
EXTT9=
EXTT10=
EXTT11=
PLAYORDER=
